<svg width="1342" height="764" viewBox="0 0 1342 764" fill="none" xmlns="http://www.w3.org/2000/svg">
<g clip-path="url(#clip0_24_6)">
<path opacity="0.1" d="M-6.10352e-05 528.142C-0.0949798 497.294 7.95529 466.877 23.4717 439.458C38.9882 412.038 61.5156 388.421 89.1537 370.597C88.3893 363.933 87.9977 357.238 87.9807 350.538C87.9807 244.589 180.935 158.699 295.615 158.699C330.928 158.665 365.649 166.964 396.394 182.787C477.559 134.141 583.524 104.699 699.447 104.699C888.066 104.699 1050.31 182.659 1122.29 294.443C1126.29 294.229 1130.32 294.112 1134.38 294.112C1249.03 294.112 1342.01 380.002 1342.01 485.951C1342.09 523.382 1330.22 560.027 1307.84 591.419C1307.84 686.745 1209.08 764.011 1087.3 764.011H203.834C108.181 764.011 30.6407 703.342 30.6407 628.491C10.5207 598.234 -0.0792328 563.518 -6.10352e-05 528.142Z" fill="black"/>
<path d="M370.012 175.403C378.857 178.801 387.725 182.21 395.96 186.699C399.702 188.729 403.292 190.973 407.14 192.822C411.281 194.831 415.68 196.349 420.044 197.973C432.086 202.454 443.781 207.674 455.048 213.597C454.075 202.109 455.916 189.627 463.459 180.671C464.568 179.344 465.8 178.107 467.143 176.974C472.48 172.464 480.047 171.299 485.29 167.355C482.099 162.247 475.014 157.609 470.193 153.708C464.984 149.512 459.58 145.533 453.981 141.771C442.789 134.242 430.873 127.65 418.378 122.075C410.448 118.538 402.166 115.375 393.415 114.295C392.312 114.069 391.16 114.163 390.118 114.563C388.758 115.247 388.265 116.785 387.937 118.164C386.306 125.057 385.473 132.132 384.112 139.078C383.445 142.648 382.54 146.178 381.403 149.647C379.94 153.751 378.253 157.785 376.347 161.734C374.227 166.287 372.116 170.843 370.012 175.403Z" fill="#FBBEBE"/>
<path d="M621.062 370.202C621.065 384.388 625.987 398.211 635.125 409.698C644.263 421.185 657.15 429.749 671.948 434.167C686.745 438.586 702.697 438.633 717.526 434.303C732.355 429.972 745.303 421.485 754.523 410.053C763.853 398.505 768.88 384.54 768.87 370.202C768.87 352.346 761.084 335.221 747.224 322.594C733.364 309.968 714.566 302.875 694.966 302.875C675.365 302.875 656.568 309.968 642.708 322.594C628.848 335.221 621.062 352.346 621.062 370.202Z" fill="#BE6F72"/>
<path d="M721.442 429.535C717.489 435.744 713.501 442.006 710.967 448.771C708.433 455.536 707.448 463.027 709.536 469.942C684.361 457.866 654.401 458.838 626.693 452.725C625.952 452.648 625.269 452.32 624.781 451.806C624.612 451.456 624.525 451.077 624.525 450.695C624.525 450.312 624.612 449.934 624.781 449.583C630.581 430.029 632.812 409.738 631.385 389.523L645.849 397.314C652.181 400.877 658.742 404.089 665.498 406.932C675.059 410.748 685.206 413.056 695.189 415.728C703.095 417.865 718.791 420.633 723.765 426.927C722.868 427.699 722.087 428.576 721.442 429.535Z" fill="#BE6F72"/>
<path d="M762.16 338.996C766.969 340.76 772.624 342.79 777.046 340.321C780.296 338.494 781.633 334.7 781.434 331.227C781.234 327.754 779.779 324.462 778.63 321.149C776.284 314.342 775.017 307.256 772.401 300.481C769.785 293.706 765.515 287.176 758.734 283.596C746.253 277.013 730.1 282.452 716.246 278.808C710.38 277.28 705.277 274.202 699.823 271.787C694.368 269.372 688.233 267.512 682.344 268.805C675.446 270.269 670.355 275.559 663.926 278.252C656.888 281.202 648.465 280.999 642.06 284.942C637.52 287.742 634.658 292.263 632.113 296.698C623.968 310.951 617.538 325.964 612.933 341.476C611.091 347.03 610.038 352.776 609.801 358.575C609.742 365.991 611.947 373.258 614.129 380.418L617.649 391.746C618.951 396.021 620.288 400.296 622.751 404.164C625.215 408.033 629.016 411.293 633.72 412.415C639.585 413.793 646.412 411.122 648.97 406.12C650.542 403.021 650.471 399.473 650.553 396.064C650.683 389.388 651.468 382.735 652.899 376.186C653.627 372.906 654.6 369.496 657.052 367.017C660.219 363.811 665.264 362.742 669.956 362.668C675.446 362.603 681.464 363.961 684.666 368.011C687.235 371.281 687.681 375.876 691.095 378.431C692.612 379.491 694.416 380.159 696.315 380.365C700.188 380.805 704.11 380.049 707.455 378.218C710.8 376.387 713.375 373.587 714.768 370.266C715.847 367.445 716.375 363.939 719.307 362.614C720.832 361.919 722.651 362.048 724.281 361.599C729.278 360.22 730.592 354.449 731.05 349.715C731.578 344.169 729.548 333.215 737.115 332.841C745.268 332.435 754.664 336.72 762.16 338.996Z" fill="#3F3D56"/>
<path d="M744.435 411.977C747.039 413.12 749.889 414.456 750.91 416.914C751.309 417.876 751.379 418.934 751.743 419.917C753.397 424.266 759.849 425.121 763.18 428.584C764.683 430.334 765.694 432.392 766.125 434.579C768.35 443.204 767.63 452.242 764.06 460.484C763.026 463.096 761.431 465.493 759.368 467.537C753.409 473.073 743.132 472.966 735.707 469.194C728.281 465.421 723.155 458.806 718.803 452.095C716.496 448.717 714.566 445.137 713.043 441.408C711.705 437.616 710.75 433.721 710.192 429.77C707.588 414.37 704.186 397.293 705.359 381.679C708.879 381.476 715.6 381.252 718.709 383.261C722.604 385.783 721.524 390.87 722.932 394.557C726.264 403.427 735.93 408.108 744.435 411.977Z" fill="#3F3D56"/>
<path d="M741.385 414.018C745.784 414.263 753.667 409.828 758.077 410.053C761.079 405.28 763.732 400.332 766.019 395.241C763.673 392.174 759.896 391.426 754.183 395.241C749.596 398.18 743.262 408.343 741.385 414.018Z" fill="#3F3D56"/>
<path d="M675.071 245.166C679.845 247.464 682.801 247.571 685.159 247.111C687.517 246.652 692.198 248.789 692.198 248.789C733.548 261.677 735.179 267.758 735.179 267.758L687.306 252.358C678.097 248.682 677.921 249.975 677.921 249.975C670.883 256.003 661.92 251.92 661.92 251.92C661.92 251.92 649.521 246.577 653.169 241.436C656.817 236.296 670.284 242.911 675.071 245.166ZM655.128 244.204C655.128 244.204 658.648 252.754 671.305 251.364C671.305 251.364 677.522 250.531 674.895 246.31C674.895 246.31 661.991 241.372 658.577 241.725C655.163 242.078 655.163 244.247 655.163 244.247L655.128 244.204Z" fill="#E8E8F0"/>
<path opacity="0.1" d="M675.071 245.166C679.845 247.464 682.801 247.571 685.159 247.111C687.517 246.652 692.198 248.789 692.198 248.789C733.548 261.677 735.179 267.758 735.179 267.758L687.306 252.358C678.097 248.682 677.921 249.975 677.921 249.975C670.883 256.003 661.92 251.92 661.92 251.92C661.92 251.92 649.521 246.577 653.169 241.436C656.817 236.296 670.284 242.911 675.071 245.166ZM655.128 244.204C655.128 244.204 658.648 252.754 671.305 251.364C671.305 251.364 677.522 250.531 674.895 246.31C674.895 246.31 661.991 241.372 658.577 241.725C655.163 242.078 655.163 244.247 655.163 244.247L655.128 244.204Z" fill="black"/>
<path d="M672.443 221.335C679.599 221.548 681.088 226.421 681.088 226.421C682.521 227.979 683.36 229.918 683.481 231.947C683.602 233.976 682.997 235.985 681.757 237.675L694.462 249.184C696.869 250.031 698.938 251.521 700.397 253.459C700.397 253.459 728.293 275.901 727.883 277.943C727.883 277.943 723.331 280.08 694.462 256.109L686.883 249.997C686.883 249.997 685.206 238.572 673.37 236.403C673.37 236.403 672.197 236.873 671.575 234.33C670.911 233.11 670.027 232.001 668.959 231.049C667.387 229.724 665.287 221.11 672.443 221.335ZM670.437 229.061C670.437 229.061 674.273 238.081 679.739 235.473C685.206 232.866 679.892 226.849 679.892 226.849C670.414 218.449 670.437 229.061 670.437 229.061Z" fill="#E8E8F0"/>
<path opacity="0.1" d="M694.215 253.673C693.379 253.673 692.702 253.056 692.702 252.294C692.702 251.533 693.379 250.916 694.215 250.916C695.051 250.916 695.729 251.533 695.729 252.294C695.729 253.056 695.051 253.673 694.215 253.673Z" fill="black"/>
<path d="M561.833 208.703C566.249 206.584 570.833 204.769 575.547 203.274C581.812 201.655 588.25 200.652 594.75 200.281C615.287 198.5 635.886 197.467 656.548 197.182C660.196 197.182 663.926 197.107 667.387 198.251C670.478 199.332 673.278 201.004 675.598 203.156C679.618 206.657 682.811 210.868 684.983 215.532C685.681 216.7 685.889 218.06 685.57 219.357C685.1 220.597 683.223 221.42 682.156 220.544C684.887 222.549 686.893 225.255 687.914 228.312C688.934 231.369 688.923 234.635 687.881 237.685C689.509 238.461 690.89 239.606 691.891 241.01C692.891 242.414 693.478 244.03 693.593 245.7C685.065 247.139 676.286 246.751 667.95 244.568C670.437 243.991 673.006 246.117 673.158 248.447C673.142 249.617 672.771 250.761 672.085 251.751C671.4 252.741 670.428 253.539 669.276 254.058C666.949 255.061 664.386 255.523 661.815 255.404C651.879 255.404 642.213 252.337 632.3 251.942C624.722 251.632 616.909 252.882 609.671 250.873C601.272 248.5 593.776 241.778 585.119 243.178C578.21 244.3 573.705 250.146 569.2 255.041C561.998 262.853 553.094 269.179 544.261 275.452C537.457 280.283 530.348 285.242 521.914 286.877C519.389 287.503 516.713 287.387 514.265 286.545C512.22 285.548 510.503 284.073 509.291 282.271C500.2 270.515 500.188 255.714 500.716 241.939C500.986 234.896 502.675 233.945 509.831 231.027C518.136 227.629 526.41 224.149 534.653 220.586C543.756 216.711 552.816 212.749 561.833 208.703Z" fill="#FBBEBE"/>
<path d="M466.756 235.078C468.154 235.839 469.631 236.473 471.166 236.969C473.735 237.525 476.351 236.531 478.85 235.762C489.408 232.556 501.138 233.314 511.344 229.35C507.998 246.85 512.378 264.846 523.532 279.417C525.644 282.153 528.424 284.953 532.084 285.167C530.454 289.73 525.433 292.487 520.67 294.539C513.064 297.819 505.108 300.375 496.927 302.17C494.581 302.672 491.719 302.918 490.358 301.101C489.537 300.032 489.185 298.205 487.742 298.269C485.537 300.406 486.264 304.788 483.214 305.75C482.263 305.97 481.267 305.97 480.316 305.75L473.513 304.681C471.471 304.52 469.505 303.903 467.788 302.886C466.712 302.034 465.824 301.004 465.172 299.851C457.547 288.02 454.614 274.33 453.441 260.812C452.866 254.1 452.151 246.983 452.655 240.25C453.124 234.479 461.242 232.737 466.756 235.078Z" fill="#E8E8F0"/>
<path opacity="0.1" d="M466.756 235.078C468.154 235.839 469.631 236.473 471.166 236.969C473.735 237.525 476.351 236.531 478.85 235.762C489.408 232.556 501.138 233.314 511.344 229.35C507.998 246.85 512.378 264.846 523.532 279.417C525.644 282.153 528.424 284.953 532.084 285.167C530.454 289.73 525.433 292.487 520.67 294.539C513.064 297.819 505.108 300.375 496.927 302.17C494.581 302.672 491.719 302.918 490.358 301.101C489.537 300.032 489.185 298.205 487.742 298.269C485.537 300.406 486.264 304.788 483.214 305.75C482.263 305.97 481.267 305.97 480.316 305.75L473.513 304.681C471.471 304.52 469.505 303.903 467.788 302.886C466.712 302.034 465.824 301.004 465.172 299.851C457.547 288.02 454.614 274.33 453.441 260.812C452.866 254.1 452.151 246.983 452.655 240.25C453.124 234.479 461.242 232.737 466.756 235.078Z" fill="black"/>
<path d="M860.006 581.726C863.349 577.814 866.787 573.668 871.737 571.605C874.589 570.557 877.591 569.888 880.652 569.618C897.157 567.48 913.698 565.257 930.356 564.841C935.799 564.702 941.641 564.841 946.075 567.737C951.154 571.039 953.113 577.12 953.395 582.794C953.698 589.552 952.225 596.277 949.099 602.411C945.973 608.545 941.285 613.911 935.423 618.061C925.452 624.986 912.853 627.882 900.559 630.169C894.096 631.377 887.597 632.456 881.075 633.375C874.552 634.294 867.913 635.021 861.613 636.859C848.146 640.792 836.263 649.683 822.139 650.421C821.475 650.514 820.796 650.409 820.204 650.121C819.584 649.665 819.167 649.02 819.031 648.305C815.922 638.312 805.141 614.385 819.031 607.395C826.292 603.751 834.351 603.591 841.46 598.964C848.569 594.336 854.61 588.042 860.006 581.726Z" fill="#BE6F72"/>
<path d="M978.592 648.059C987.731 640.813 1000.34 636.977 1006.98 627.754C1009.9 623.693 1011.38 618.927 1012.85 614.246L1017.16 600.118C1017.5 599.25 1017.65 598.333 1017.61 597.414C1017.28 594.464 1013.47 593.064 1010.25 592.605C993.831 590.275 976.727 596.303 964.433 606.498C952.14 616.693 944.245 630.757 939.611 645.334C939.285 646.075 939.236 646.894 939.47 647.663C939.872 648.348 940.506 648.895 941.277 649.224C947.213 652.43 955.19 657.1 962.122 658.083C969.055 659.066 973.654 651.927 978.592 648.059Z" fill="#BE6F72"/>
<path d="M577.658 587.144L529.562 604.681C524.999 606.343 521.243 609.445 518.98 613.419C516.717 617.393 516.097 621.976 517.233 626.332L553.024 763.476H642.506L626.927 607.449C626.927 607.449 592.908 581.801 577.658 587.144Z" fill="#3F3D56"/>
<path d="M531.204 570.686C532.096 572.46 533.41 574.213 533.21 576.147C533.093 577.301 532.436 578.392 532.53 579.535C532.718 581.779 535.568 583.03 538.032 583.051C540.495 583.072 542.97 582.346 545.399 582.73C549.387 583.35 552.085 586.695 555.534 588.629C560.344 591.323 566.35 591.162 571.957 591.622C583.688 592.584 594.785 596.591 605.402 601.154C612.616 604.254 620.276 608.229 622.998 615.047C626.904 624.665 619.326 634.796 617.649 644.97C617.199 648.395 617.089 651.851 617.32 655.294C618.552 691.223 620.675 727.569 622.927 763.455L1052.93 763.914L1031.76 730.112C1011.11 697.143 989.913 663.555 958.768 638.344C954.148 634.545 948.957 631.364 943.353 628.897L918.379 649.202C916.379 651.014 914.059 652.506 911.516 653.616C906.824 655.358 901.568 654.364 896.536 654.514C886.858 654.802 878.013 659.301 869.614 663.694C863.453 666.739 857.527 670.163 851.877 673.942C848.569 676.251 843.794 677.693 840.345 679.82L841.155 641.454C841.237 637.992 841.296 634.444 840.158 631.142C837.952 624.729 831.653 620.198 828.626 614.096C827.254 611.35 826.585 608.357 825.436 605.547C823.81 601.934 821.79 598.479 819.406 595.234L803.839 572.45C799.992 566.828 796.156 561.207 791.979 555.789C773.715 532.053 749.127 513.042 725.208 493.966C725.764 488.529 724.386 483.074 721.278 478.406C720.053 476.851 719.037 475.169 718.252 473.394C717.745 471.289 717.599 469.126 717.818 466.982C717.818 466.436 717.818 465.913 717.818 465.336C717.558 461.841 715.954 458.542 713.289 456.017C710.544 453.42 706.873 451.838 703.26 450.364C684.562 442.746 665.121 436.742 645.192 432.431C642.013 431.747 638.647 431.106 635.514 431.972C634.564 434.761 631.327 435.744 628.089 436.449L626.013 436.887C620.514 437.969 615.386 440.25 611.067 443.535C606.528 447.147 603.407 451.977 600.369 456.733C577.529 492.459 567.007 539.331 531.674 565.289C529.961 566.518 530.313 568.976 531.204 570.686Z" fill="#4B3F8F" fill-opacity="0.933333"/>
<path opacity="0.1" d="M387.115 131.886C399.48 156.647 423.844 181.045 455.658 181.045C458.256 181.047 460.851 180.929 463.436 180.693C464.544 179.365 465.776 178.128 467.119 176.995C472.457 172.485 480.023 171.32 485.267 167.377C482.076 162.269 474.991 157.63 470.169 153.73C464.961 149.533 459.557 145.554 453.957 141.793C442.765 134.263 430.849 127.671 418.354 122.097C410.424 118.559 402.142 115.396 393.391 114.317C392.289 114.091 391.136 114.184 390.095 114.584C388.734 115.268 388.241 116.807 387.913 118.185C386.282 125.025 388.476 124.939 387.115 131.886Z" fill="black"/>
<path d="M455.658 178.897C412.251 178.897 377.062 146.84 377.062 107.296C377.062 67.7511 412.251 35.6939 455.658 35.6939C499.066 35.6939 534.254 67.7511 534.254 107.296C534.254 146.84 499.066 178.897 455.658 178.897Z" fill="#FBBEBE"/>
<path d="M291.979 345.43C293.258 354.087 295.49 362.604 298.642 370.854C299.815 373.857 301.258 376.785 302.748 379.67C311.487 396.545 316.285 414.787 318.572 433.339C318.748 434.8 319.042 436.247 319.452 437.668C321.177 443.652 324.813 448.996 327.593 454.628C330.429 460.711 332.781 466.972 334.632 473.362C335.301 474.965 335.527 476.693 335.289 478.395C334.855 480.201 333.424 481.601 332.415 483.236C327.206 491.412 333.224 501.404 335.254 510.658C335.946 513.864 336.251 517.348 338.538 519.849C340.486 521.987 343.512 522.97 346.386 523.867C387.351 536.555 429.279 546.498 471.835 553.619C478.181 554.688 484.739 555.682 491.038 554.613C497.338 553.545 503.614 549.997 505.772 544.461C507.016 541.255 506.804 537.771 506.699 534.372C506.464 527.234 506.699 520.052 507.121 512.86C508.482 489.189 511.567 465.432 504.775 442.754C502.746 436.065 499.883 429.61 497.584 422.995C493.091 410.096 491.93 396.758 490.804 383.379C489.877 372.35 488.974 361.278 486.264 350.399C484.246 342.288 485.583 333.856 485.701 325.542C485.933 306.515 479.795 287.876 468.105 272.108C466.075 269.382 463.846 266.689 462.779 263.558C461.277 259.07 462.31 254.25 462.99 249.59C464.703 237.711 464.011 225.645 460.949 213.993C459.986 209.633 458.153 205.471 455.541 201.714C452.62 197.834 448.432 194.906 444.244 192.149C419.931 176.181 393.104 163.66 364.674 155.012C362.058 161.04 359.548 168.082 357.542 174.248C357.272 175.082 357.085 176.14 357.835 176.674C358.586 177.209 359.36 176.92 360.181 176.941C361.029 177.025 361.829 177.34 362.476 177.846C363.122 178.351 363.586 179.023 363.806 179.773C364.217 181.287 364.06 182.882 363.361 184.305C361.765 188.045 358.328 190.834 355.02 193.474L338.386 206.694C336.395 208.391 334.221 209.902 331.899 211.203C329.811 212.272 327.535 213.031 325.388 214.014C316.778 217.979 310.83 225.705 307.51 233.956C304.191 242.206 305.692 252.123 301.363 259.957C286.982 285.926 287.099 316.65 291.979 345.43Z" fill="#E8E8F0"/>
<path d="M302.912 617.153C297.858 635.712 297.983 655.128 303.276 673.632C304.226 676.935 305.34 680.354 304.589 683.699C304.155 685.601 303.135 687.386 302.9 689.321C302.798 691.085 303.007 692.853 303.522 694.557C308.73 716.999 306.865 740.318 304.765 763.22C305.657 763.22 305.938 763.594 306.877 763.594H329.482C329.881 757.577 338.093 753.067 342.104 748.269C345.986 743.566 348.67 738.135 349.962 732.37C351.254 726.605 351.123 720.65 349.577 714.937C346.058 702.113 335.688 691.864 330.374 679.606C324.508 666.119 325.013 650.848 318.784 637.511C315.206 629.806 308.519 623.789 302.912 617.153Z" fill="#3F3D56"/>
<path opacity="0.1" d="M302.912 617.153C297.858 635.712 297.983 655.128 303.276 673.632C304.226 676.935 305.34 680.354 304.589 683.699C304.155 685.601 303.135 687.386 302.9 689.321C302.798 691.085 303.007 692.853 303.522 694.557C308.73 716.999 306.865 740.318 304.765 763.22C305.657 763.22 305.938 763.594 306.877 763.594H329.482C329.881 757.577 338.093 753.067 342.104 748.269C345.986 743.566 348.67 738.135 349.962 732.37C351.254 726.605 351.123 720.65 349.577 714.937C346.058 702.113 335.688 691.864 330.374 679.606C324.508 666.119 325.013 650.848 318.784 637.511C315.206 629.806 308.519 623.789 302.912 617.153Z" fill="black"/>
<path d="M350.351 514.292C369.566 511.492 388.183 520.309 406.741 525.663C435.094 533.838 466.31 534.34 492.505 547.175C494.845 548.201 496.966 549.598 498.769 551.3C500.895 553.699 502.233 556.596 502.628 559.658C503.799 566.426 502.361 573.356 498.558 579.268C496.927 581.79 494.874 584.109 493.607 586.813C490.604 593.225 492.61 600.62 493.126 607.631C494.299 623.287 487.636 638.526 486.299 654.172C485.501 663.394 486.545 672.82 484.164 681.818C482.674 687.461 479.871 692.783 478.709 698.49C477.548 704.197 478.052 709.775 477.665 715.418C476.574 731.587 468.492 747.297 470.463 763.402L317.963 763.861C323.617 745.939 328.321 727.408 323.194 709.358C321.416 703.651 319.205 698.063 316.578 692.634C308.05 673.857 299.287 655.027 294.583 635.171C289.879 615.314 289.457 594.112 297.422 575.132C306.29 553.972 325.142 536.371 329.248 514.036C336.286 513.181 343.301 515.318 350.351 514.292Z" fill="#3F3D56"/>
<path d="M510.394 72.3711C511.872 69.5497 516.06 67.6902 518.875 69.4749C521.691 71.2596 521.327 75.2458 522.019 78.4519C523.356 84.7571 530.231 89.0532 537.269 90.0577C540.566 90.5386 544.237 90.3463 546.795 88.4013C548.442 86.9641 549.654 85.1642 550.314 83.1754C557.352 66.0765 553.071 46.1136 541.551 31.1948C539.107 27.8518 536.075 24.8983 532.577 22.453C522.876 16.0409 509.901 16.0409 497.901 16.3829C495.464 16.6236 492.999 16.3643 490.686 15.6241C488.924 14.7791 487.311 13.6984 485.9 12.4181C474.533 3.3129 458.826 -0.512978 443.669 0.0961702C428.513 0.705318 413.932 5.43957 400.465 11.7341C394.025 14.7371 387.714 18.1462 382.669 22.8911C370.552 34.2512 367.595 51.0829 365.214 66.7712C362.657 83.6991 360.111 101.097 364.416 117.737C366.856 127.162 371.455 136.374 370.915 146.046C380.659 148.581 390.562 150.576 400.571 152.02C405.263 152.693 410.682 153.089 414.12 150.064C415.573 148.645 416.635 146.93 417.216 145.063C420.935 135.049 419.692 123.614 425.311 114.36C427.66 110.586 431.018 107.414 435.072 105.139C439.127 102.863 443.746 101.558 448.502 101.343C452.186 101.225 456.374 102.048 458.262 104.923C458.986 106.333 459.545 107.809 459.928 109.326C462.532 116.476 473.196 120.013 480.222 116.027C483.742 114.018 486.146 110.683 489.326 108.183C493.361 105.03 498.534 103.406 503.062 100.862C518.148 92.3447 504.552 83.5388 510.394 72.3711Z" fill="#3F3D56"/>
<path d="M628.042 436.46C634.459 438.33 640.301 441.718 646.541 444.101C657.533 448.28 669.616 449.252 681.147 451.924C692.226 454.631 702.904 458.549 712.949 463.594C713.688 463.957 716.011 465.731 717.864 466.949C717.864 466.404 717.864 465.881 717.864 465.304C717.605 461.809 716.001 458.51 713.336 455.985C710.591 453.388 706.92 451.806 703.307 450.331C684.592 442.722 665.136 436.729 645.192 432.431C642.013 431.747 638.647 431.106 635.514 431.972C634.517 434.761 631.28 435.744 628.042 436.46Z" fill="#3F3D56"/>
<path opacity="0.1" d="M794.349 710.523C781.727 723.347 770.406 737.347 755.72 748.162C772.671 727.654 796.988 713.964 818.972 698.501C823.43 695.359 832.345 690.902 835.043 686.36C839.301 679.243 829.893 684.298 825.987 686.232C813.787 692.27 803.558 701.183 794.349 710.523Z" fill="black"/>
<path opacity="0.1" d="M340.192 336.186C340.791 340.802 342.679 345.184 344.591 349.48C349.284 360.167 354.316 370.747 361.402 380.226C366.282 386.756 372.088 392.655 377.179 399.035C382.405 405.807 387.199 412.846 391.538 420.12C399.538 433.029 407.335 446.046 414.929 459.169C418.554 465.453 422.155 471.791 426.836 477.465C430.121 481.295 433.646 484.949 437.393 488.409C445.605 496.295 454.039 503.584 461.383 512.133C465.019 516.408 471.084 518.054 476.75 519.507C478.645 520.081 480.62 520.405 482.616 520.469C484.625 520.341 486.601 519.942 488.481 519.283C494.809 517.524 501.001 515.381 507.016 512.871C508.376 489.199 511.462 465.443 504.669 442.765C502.64 436.075 499.778 429.62 497.478 423.005C492.986 410.106 491.824 396.769 490.698 383.389C489.302 380.707 487.812 378.046 486.369 375.46C476.586 357.848 468.339 338.451 470.885 318.82C471.533 315.28 471.983 311.714 472.234 308.133C472.209 303.742 471.397 299.385 469.829 295.234C466.318 285.429 460.515 276.434 452.819 268.869C445.123 261.305 435.718 255.351 425.252 251.418C421.947 250.011 418.343 249.281 414.694 249.281C410.002 249.505 405.509 251.728 400.934 250.916C385.438 257.125 372.898 267.726 363.525 280.571C354.152 293.417 353.636 310.58 343.442 322.891C340.427 326.632 339.606 331.58 340.192 336.186Z" fill="black"/>
<path d="M679.376 278.188L679.868 277.216L699.037 285.274L702.239 286.62L705.43 287.956L678.402 341.337L675.211 339.99L672.009 338.644L652.841 330.586L653.333 329.624L672.502 337.682L672.994 336.709L653.826 328.651L654.319 327.679L673.487 335.737L673.98 334.764L654.812 326.706L655.293 325.734L674.472 333.792L674.965 332.83L655.785 324.772L656.278 323.8L675.458 331.857L675.95 330.885L656.771 322.827L657.263 321.855L676.431 329.912L676.924 328.94L657.756 320.882L658.249 319.92L677.417 327.978L677.909 327.006L658.741 318.948L659.234 317.975L678.402 326.033L678.895 325.061L659.715 317.003L660.208 316.03L679.388 324.088L679.88 323.126L660.7 315.058L661.193 314.096L680.373 322.154L680.854 321.181L661.686 313.124L662.178 312.151L681.347 320.209L681.839 319.236L662.671 311.179L663.164 310.206L682.332 318.264L682.825 317.302L663.657 309.244L664.138 308.272L683.317 316.33L683.81 315.357L664.63 307.299L665.123 306.327L684.303 314.385L684.784 313.412L665.616 305.365L666.108 304.392L685.276 312.45L685.769 311.478L666.601 303.42L667.094 302.447L686.262 310.505L686.754 309.533L667.586 301.475L668.067 300.502L687.247 308.571L687.74 307.598L668.56 299.541L669.053 298.568L688.233 306.626L688.725 305.653L669.545 297.596L670.038 296.623L689.206 304.681L689.699 303.708L670.531 295.651L671.024 294.689L690.192 302.747L690.684 301.774L671.516 293.716L672.009 292.744L691.177 300.802L691.67 299.829L672.49 291.771L672.983 290.809L692.162 298.857L692.655 297.895L673.475 289.837L673.968 288.864L693.148 296.922L693.629 295.95L674.461 287.892L674.953 286.919L694.121 294.977L694.614 294.005L675.446 285.947L675.939 284.985L695.107 293.043L695.599 292.07L676.431 284.013L676.912 283.04L696.092 291.098L696.585 290.126L677.405 282.068L677.898 281.095L697.078 289.153L697.57 288.191L678.39 280.133L678.883 279.161L698.063 287.219L698.544 286.246L679.376 278.188Z" fill="black"/>
<path opacity="0.1" d="M619.197 395.594C621.672 399.409 625.461 402.722 630.165 403.844C636.031 405.222 642.858 402.551 645.415 397.549C646.987 394.45 646.917 390.902 646.999 387.493C647.128 380.817 647.914 374.164 649.345 367.616C650.072 364.335 651.046 360.926 653.498 358.446C656.665 355.24 661.709 354.172 666.402 354.097C671.892 354.033 677.909 355.39 681.112 359.44C683.681 362.71 684.127 367.306 687.54 369.86C689.058 370.92 690.861 371.588 692.761 371.794C696.633 372.234 700.556 371.478 703.901 369.647C707.246 367.816 709.821 365.016 711.213 361.695C712.292 358.874 712.82 355.368 715.753 354.043C717.278 353.349 719.096 353.477 720.727 353.028C725.724 351.649 727.038 345.879 727.495 341.144C728.023 335.598 725.994 324.644 733.56 324.27C741.654 323.864 751.051 328.149 758.547 330.425C763.356 332.189 769.011 334.219 773.433 331.751C776.683 329.923 778.02 326.129 777.82 322.656C777.621 319.183 776.166 315.891 775.017 312.578C773.046 306.979 771.861 301.165 770.055 295.48C770.904 297.088 771.66 298.736 772.319 300.417C774.923 307.16 776.143 314.31 778.536 321.085C779.709 324.398 781.14 327.69 781.34 331.163C781.539 334.636 780.167 338.43 776.952 340.257C772.53 342.726 766.876 340.695 762.066 338.932C754.57 336.656 745.174 332.37 737.079 332.777C729.513 333.151 731.542 344.105 731.015 349.651C730.557 354.385 729.243 360.156 724.246 361.535C722.615 361.984 720.797 361.855 719.272 362.55C716.339 363.875 715.753 367.38 714.732 370.202C713.34 373.523 710.765 376.323 707.42 378.154C704.075 379.984 700.152 380.74 696.28 380.301C694.381 380.095 692.577 379.427 691.06 378.367C687.646 375.812 687.2 371.217 684.631 367.947C681.429 363.875 675.411 362.518 669.921 362.603C665.228 362.668 660.126 363.736 657.017 366.953C654.565 369.432 653.592 372.841 652.864 376.122C651.433 382.671 650.648 389.323 650.518 396C650.436 399.409 650.518 402.957 648.934 406.056C646.389 411.057 639.55 413.729 633.684 412.351C628.992 411.228 625.191 407.916 622.716 404.1C620.832 400.985 619.382 397.668 618.399 394.226C618.657 394.717 618.915 395.155 619.197 395.594Z" fill="black"/>
<path d="M558.854 388.498C568.238 380.29 576.72 371.206 585.142 362.144C593.213 353.477 601.307 344.767 607.806 335.074C611.83 329.079 615.42 322.539 621.602 318.339C626.294 315.133 632.03 313.636 637.215 311.189C640.946 309.426 644.383 307.192 648.066 305.365C656.101 301.408 665.144 299.465 674.273 299.733C678.062 299.85 682.367 300.652 684.314 303.623C684.983 304.638 685.3 305.824 685.98 306.829C688.08 310.035 693.136 310.943 694.86 314.31C697.77 319.974 688.995 325.178 688.444 331.409C688.186 334.529 690.074 337.436 690.626 340.524C691.564 345.868 688.526 350.965 685.593 355.625C679.317 365.606 671.68 376.539 659.351 379.05C654.987 379.937 650.377 379.649 646.119 380.91C642.687 382.095 639.51 383.82 636.734 386.008C625.151 394.325 614.942 404.118 606.422 415.086C602.457 420.184 598.867 425.506 594.867 430.572C582.136 446.62 565.428 459.705 546.103 468.766L531.709 427.088C529.492 420.676 527.744 411.88 534.055 406.879C541.962 400.392 551.076 395.273 558.854 388.498Z" fill="#FBBEBE"/>
<path d="M402.166 245.615C406.741 246.416 411.281 244.204 415.926 243.98C419.575 243.978 423.179 244.708 426.484 246.117C436.948 250.053 446.352 256.007 454.047 263.571C461.743 271.136 467.547 280.129 471.061 289.933C472.614 294.102 473.415 298.473 473.43 302.875C473.36 306.455 472.539 309.982 472.081 313.562C469.536 333.161 477.782 352.569 487.554 370.202C492.962 379.937 499.062 390.207 497.783 401.055C497.619 402.508 497.361 404.143 498.335 405.329C499.508 406.74 502.042 406.815 503.133 408.3C504.224 409.786 503.227 412.03 504.095 413.708C505.268 416.08 509.092 415.792 511.825 414.947C519.317 412.638 526.257 409.047 532.272 404.367C542.02 409.551 552.449 415.728 555.651 425.581C556.404 428.095 556.925 430.661 557.212 433.254L562.244 471.513C562.913 476.578 563.241 482.52 559.042 485.897C551.804 491.732 538.912 484.177 531.169 489.456C529.187 490.802 527.896 492.812 526.477 494.639C518.019 505.208 503.461 509.857 489.807 513.875C487.925 514.526 485.949 514.922 483.941 515.051C481.944 515 479.967 514.675 478.076 514.089C472.398 512.636 466.345 510.947 462.708 506.726C455.353 498.176 446.919 490.888 438.707 483.001C434.966 479.536 431.441 475.883 428.15 472.058C423.457 466.372 419.868 460.035 416.243 453.751C408.665 440.628 400.876 427.611 392.875 414.702C388.492 407.458 383.655 400.45 378.388 393.713C373.285 387.301 367.49 381.423 362.61 374.904C355.571 365.414 350.515 354.791 345.8 344.158C343.888 339.883 341.999 335.47 341.389 330.864C340.779 326.258 341.6 321.31 344.673 317.601C354.867 305.279 355.372 288.127 364.745 275.282C374.118 262.436 386.658 251.813 402.166 245.615Z" fill="#E8E8F0"/>
<path d="M679.059 282.57C679.333 282.728 679.565 282.94 679.739 283.189C679.914 283.438 680.026 283.72 680.068 284.013C680.068 284.547 679.587 284.964 679.329 285.445C678.613 286.813 679.763 288.394 681.077 289.335C682.391 290.275 683.986 291.002 684.702 292.38C684.812 292.563 684.86 292.771 684.842 292.979C684.763 293.26 684.581 293.509 684.326 293.684C683.554 294.493 682.551 295.092 681.429 295.415C679.634 295.757 677.909 294.678 676.384 293.791C674.73 292.838 672.968 292.05 671.129 291.44C670.56 291.287 670.024 291.044 669.545 290.724C668.959 290.191 668.598 289.488 668.525 288.736C668.126 286.054 669.698 283.478 671.493 281.255C673.651 278.637 677.217 281.127 679.059 282.57Z" fill="#3F3D56"/>
<path d="M859.033 599.275L980.8 542.656C981.688 542.243 982.776 542.564 983.23 543.374L1014.26 598.763C1014.72 599.572 1014.36 600.564 1013.47 600.977L891.708 657.596C890.819 658.009 889.731 657.688 889.278 656.878L858.245 601.489C857.792 600.68 858.144 599.689 859.033 599.275Z" fill="#3F3D56"/>
<path d="M870.244 600.699L975.293 551.853L1001.95 599.427L896.898 648.273L870.244 600.699Z" fill="#E8E8F0"/>
<path d="M990.93 574.583C990.609 574.01 991.121 573.186 992.073 572.743C993.025 572.301 994.057 572.406 994.378 572.979C994.699 573.552 994.188 574.376 993.236 574.818C992.284 575.261 991.251 575.156 990.93 574.583Z" fill="#E6E8EC"/>
<path d="M876.053 628.137C875.526 627.196 876.371 625.842 877.94 625.112C879.51 624.382 881.21 624.553 881.737 625.494C882.264 626.435 881.419 627.79 879.85 628.52C878.28 629.25 876.58 629.078 876.053 628.137Z" fill="#E6E8EC"/>
<g opacity="0.1">
<path d="M364.44 110.213C366.88 119.639 371.478 128.851 370.939 138.522C380.682 141.057 390.586 143.052 400.594 144.496C405.286 145.17 410.706 145.565 414.143 142.541C415.597 141.121 416.658 139.407 417.24 137.539C420.959 127.526 419.715 116.091 425.334 106.836C427.684 103.063 431.041 99.8909 435.096 97.6154C439.15 95.3398 443.77 94.0342 448.526 93.8195C452.209 93.7019 456.397 94.5248 458.286 97.3996C459.01 98.8097 459.568 100.286 459.952 101.803C462.556 108.952 473.219 112.489 480.246 108.503C483.765 106.494 486.17 103.16 489.349 100.659C493.384 97.5064 498.558 95.882 503.086 93.3386C507.168 91.0516 509.127 88.7433 509.96 86.3601C510.992 91.5004 511.286 96.224 503.086 100.819C498.558 103.363 493.384 104.987 489.349 108.14C486.17 110.619 483.812 113.975 480.246 115.984C473.207 119.949 462.556 116.433 459.952 109.283C459.568 107.766 459.01 106.29 458.286 104.88C456.397 102.006 452.209 101.183 448.526 101.3C443.77 101.515 439.15 102.821 435.096 105.096C431.041 107.372 427.684 110.543 425.334 114.317C419.715 123.572 420.959 135.006 417.24 145.02C416.65 146.903 415.571 148.629 414.096 150.053C410.659 153.046 405.228 152.682 400.547 152.009C390.539 150.565 380.635 148.57 370.892 146.035C371.466 136.364 366.833 127.152 364.393 117.726C362.514 110.013 361.76 102.108 362.152 94.2149C362.339 99.6029 363.105 104.961 364.44 110.213Z" fill="black"/>
<path d="M509.256 75.3634C508.398 71.8484 508.809 68.1749 510.429 64.8903C511.907 62.069 516.095 60.2095 518.911 61.9942C521.726 63.7789 521.327 67.7651 522.019 70.9711C523.357 77.2763 530.231 81.5724 537.269 82.577C540.566 83.0579 544.237 82.8655 546.795 80.9205C548.442 79.4834 549.654 77.6834 550.314 75.6947C552.116 71.2499 553.21 66.5931 553.563 61.8659C554.159 69.0989 553.051 76.3642 550.314 83.1754C549.654 85.1642 548.442 86.9641 546.795 88.4013C544.237 90.3463 540.566 90.5386 537.269 90.0577C530.313 89.0532 523.403 84.7143 522.019 78.4519C521.351 75.2458 521.808 71.3665 518.899 69.5284C515.99 67.6902 511.86 69.6032 510.417 72.4245C509.915 73.363 509.526 74.3484 509.256 75.3634Z" fill="black"/>
</g>
</g>
<defs>
<clipPath id="clip0_24_6">
<rect width="1342" height="764" fill="white" transform="matrix(-1 0 0 1 1342 0)"/>
</clipPath>
</defs>
</svg>
